<svg width="512" height="512" viewBox="0 0 512 512" fill="none" xmlns="http://www.w3.org/2000/svg" role="img" aria-label="WattWise logo">
  <path
    d="M397.4 361.2C365.9 391.3 323.2 409.8 276.2 409.8H251.8L269.5 374.5H276.2C311.6 374.5 344.1 362 369.6 341.2L343.5 315.1H397.4V361.2Z"
    fill="#001F5E"
  />

  <path
    d="M115.8 365.2C77.9 333 53.8 285 53.8 231.4C53.8 134.4 132.4 55.8 229.4 55.8H282.6C349.8 55.8 408.2 93.5 437.8 148.9L405.4 165.6C381.8 121.6 335.5 91.1 282.6 91.1H229.4C151.9 91.1 89.1 153.9 89.1 231.4C89.1 272.9 107.1 310.1 135.8 335.8L115.8 365.2Z"
    fill="#001F5E"
  />

  <path
    d="M432.8 177.2C449.1 206.8 455.8 241.2 451.5 275.5C446.4 316.2 427.4 353.3 397.4 381.2V331.7C411.1 313.7 419.7 292.4 422.6 269.9C425.8 244.5 421.1 219.1 409.4 197.2L432.8 177.2Z"
    fill="#001F5E"
  />

  <path
    d="M147.2 168.2C170.5 187.8 200.5 195.4 232.2 196.4L222.5 233.2C197.9 227.8 174.8 217.8 156.2 201.2C146.4 216.4 143.8 236.9 151.4 254.8C160.1 275.5 179.5 288.6 200.5 291.2L192.6 326.8C157.1 321.9 126.2 298.7 112.1 265.2C97.3 230.1 105.8 188.9 132.8 161.9L147.2 168.2Z"
    fill="#001F5E"
  />

  <path
    d="M364.8 168.2C341.5 187.8 311.5 195.4 279.8 196.4L289.5 233.2C314.1 227.8 337.2 217.8 355.8 201.2C365.6 216.4 368.2 236.9 360.6 254.8C351.9 275.5 332.5 288.6 311.5 291.2L319.4 326.8C354.9 321.9 385.8 298.7 399.9 265.2C414.7 230.1 406.2 188.9 379.2 161.9L364.8 168.2Z"
    fill="#001F5E"
  />

  <path
    d="M176.8 247.9C176.8 231.8 189.8 218.8 205.9 218.8C222 218.8 235 231.8 235 247.9C235 264 222 277 205.9 277C189.8 277 176.8 264 176.8 247.9Z"
    fill="#001F5E"
  />

  <path
    d="M277 247.9C277 231.8 290 218.8 306.1 218.8C322.2 218.8 335.2 231.8 335.2 247.9C335.2 264 322.2 277 306.1 277C290 277 277 264 277 247.9Z"
    fill="#001F5E"
  />

  <path
    d="M278.8 91.2L232.8 230.8H291.2L215.5 443.8L232.2 298.8H177.4L221.2 126.8L278.8 91.2Z"
    fill="#001F5E"
  />
</svg>
